<svg
  width="44"
  height="44"
  viewBox="0 0 44 44"
  fill="none"
  xmlns="http://www.w3.org/2000/svg"
>
<path
    d="M39.7609 9.14019C40.7449 8.8765 41.615 8.29646 42.2371 7.48952C42.8589 6.68254 43.1981 5.69343 43.2025 4.67464V4.66253C43.2025 3.43809 42.7162 2.26379 41.8502 1.39799C40.9844 0.532181 39.8101 0.0457764 38.5857 0.0457764H38.5739C37.5551 0.0502326 36.5663 0.38958 35.7595 1.0115C34.9527 1.63342 34.3726 2.50343 34.1091 3.48742C33.3549 6.21948 31.7251 8.62868 29.4702 10.3456C27.215 12.0624 24.4591 12.9922 21.6248 12.9922C18.7906 12.9922 16.0346 12.0624 13.7795 10.3456C11.5244 8.62868 9.89479 6.21948 9.14055 3.48742C8.87673 2.50351 8.29666 1.63363 7.48977 1.01186C6.68287 0.390069 5.69391 0.0508767 4.67525 0.0465492H4.66315C3.43872 0.0465492 2.2644 0.532953 1.3986 1.39876C0.532791 2.26457 0.0463867 3.43886 0.0463867 4.66331V4.67541C0.0508945 5.69407 0.390242 6.68301 1.01216 7.48983C1.63408 8.29662 2.50406 8.87653 3.48803 9.14019C6.22009 9.89441 8.62931 11.524 10.3462 13.7791C12.063 16.0342 12.9928 18.7902 12.9928 21.6245C12.9928 24.4587 12.063 27.2146 10.3462 29.4698C8.62931 31.725 6.22009 33.3545 3.48803 34.1087C2.50412 34.3725 1.63421 34.9523 1.01234 35.7591C0.390473 36.5659 0.0511525 37.5548 0.0466447 38.5733V38.5854C0.0466447 39.8099 0.533049 40.984 1.39885 41.85C2.26469 42.7158 3.43896 43.2021 4.6634 43.2021H4.67551C5.69419 43.1977 6.6831 42.8582 7.48992 42.2364C8.29671 41.6143 8.87662 40.7445 9.14029 39.7605C9.89454 37.0285 11.5242 34.6193 13.7792 32.9025C16.0343 31.1854 18.7903 30.2557 21.6246 30.2557C24.4588 30.2557 27.2148 31.1854 29.4699 32.9025C31.7249 34.6193 33.3546 37.0285 34.1089 39.7605C34.3724 40.7445 34.9525 41.6146 35.7592 42.2367C36.566 42.8585 37.5551 43.198 38.5739 43.2024H38.586C39.8103 43.2024 40.9847 42.7158 41.8504 41.85C42.7162 40.9843 43.2028 39.8099 43.2028 38.5856V38.5733C43.1984 37.5545 42.8589 36.5656 42.2371 35.7589C41.615 34.9521 40.7451 34.3722 39.7611 34.1085C37.0291 33.3543 34.6199 31.7248 32.9031 29.4696C31.186 27.2144 30.2564 24.4584 30.2564 21.6242C30.2564 18.7899 31.186 16.034 32.9031 13.7789C34.6199 11.5238 37.0291 9.89418 39.7611 9.13994L39.7609 9.14019Z"
    fill="url(#paint0_linear_69_7174)"
  />
<defs>
<linearGradient
      id="paint0_linear_69_7174"
      x1="21.6246"
      y1="47.1296"
      x2="21.6246"
      y2="13.4675"
      gradientUnits="userSpaceOnUse"
    >
<stop offset="0.005" stop-color="#3F51DC" />
<stop offset="1" stop-color="#2AC3D1" />
</linearGradient>
</defs>
</svg>
